<?xml version="1.0" standalone="no"?>
<!DOCTYPE svg PUBLIC "-//W3C//DTD SVG 20010904//EN"
 "http://www.w3.org/TR/2001/REC-SVG-20010904/DTD/svg10.dtd">
<svg version="1.0" xmlns="http://www.w3.org/2000/svg"
 width="1355.000000pt" height="780.000000pt" viewBox="0 0 1355.000000 780.000000"
 preserveAspectRatio="xMidYMid meet">

<g transform="translate(0.000000,780.000000) scale(0.100000,-0.100000)"
fill="#000000" stroke="none">
<path d="M523 7288 c-266 -266 -486 -487 -490 -491 -8 -9 6726 -6747 6742
-6747 6 0 1528 1518 3383 3373 l3372 3372 -488 488 c-268 268 -492 487 -497
487 -6 0 -1304 -1294 -2885 -2875 -1581 -1581 -2879 -2875 -2885 -2875 -6 0
-1304 1294 -2885 2875 -1581 1581 -2877 2875 -2880 2875 -3 0 -222 -217 -487
-482z"/>
</g>
</svg>
