<?xml version="1.0" standalone="no"?>
<!DOCTYPE svg PUBLIC "-//W3C//DTD SVG 20010904//EN"
 "http://www.w3.org/TR/2001/REC-SVG-20010904/DTD/svg10.dtd">
<svg version="1.0" xmlns="http://www.w3.org/2000/svg"
 width="1355.000000pt" height="780.000000pt" viewBox="0 0 1355.000000 780.000000"
 preserveAspectRatio="xMidYMid meet">

<g transform="translate(0.000000,780.000000) scale(0.100000,-0.100000)"
fill="#000000" stroke="none">
<path d="M3392 4377 l-3372 -3372 488 -488 c268 -268 492 -487 497 -487 6 0
1304 1294 2885 2875 1581 1581 2879 2875 2885 2875 6 0 1304 -1294 2885 -2875
1581 -1581 2878 -2874 2882 -2873 8 3 948 939 971 966 8 11 -725 749 -3359
3383 -1853 1853 -3373 3369 -3379 3369 -6 0 -1528 -1518 -3383 -3373z"/>
</g>
</svg>
